<svg width="9" height="14" viewBox="0 0 9 14" fill="none" xmlns="http://www.w3.org/2000/svg">
<path d="M8.72802 9.11731C8.72802 9.63593 8.57774 10.1234 8.27719 10.5798C7.98866 11.0362 7.55587 11.42 6.97881 11.7311C6.41377 12.0423 5.74054 12.229 4.9591 12.2913V13.5515H3.78695V12.2913C2.65688 12.1979 1.7432 11.8919 1.04592 11.3733C0.34864 10.8547 0 10.1701 0 9.31957H2.20004C2.2361 9.72409 2.38638 10.0612 2.65087 10.3309C2.91535 10.5902 3.29405 10.7561 3.78695 10.8288V7.40587C2.98147 7.22954 2.32627 7.05321 1.82134 6.87688C1.31642 6.69018 0.883622 6.39975 0.52296 6.0056C0.17432 5.61145 0 5.07209 0 4.38751C0 3.5266 0.34864 2.8161 1.04592 2.25599C1.7432 1.68551 2.65688 1.35359 3.78695 1.26024V0H4.9591V1.26024C6.01704 1.34322 6.8646 1.63365 7.50177 2.13152C8.15096 2.61902 8.51763 3.29323 8.60179 4.15413H6.40175C6.36568 3.83259 6.22142 3.54735 5.96896 3.29841C5.71649 3.0391 5.37987 2.86277 4.9591 2.76942V6.13007C5.76458 6.29603 6.41978 6.47236 6.92471 6.65906C7.42964 6.83539 7.85642 7.12063 8.20506 7.51478C8.5537 7.89856 8.72802 8.43273 8.72802 9.11731ZM2.09184 4.29416C2.09184 4.71943 2.2361 5.05134 2.52463 5.28991C2.82519 5.52847 3.24596 5.72036 3.78695 5.86557V2.72275C3.27 2.77461 2.85524 2.93538 2.54267 3.20506C2.24212 3.47474 2.09184 3.83778 2.09184 4.29416ZM4.9591 10.8288C5.48807 10.7561 5.90283 10.5746 6.20339 10.2842C6.50394 9.9834 6.65421 9.62556 6.65421 9.21066C6.65421 8.79577 6.50394 8.47422 6.20339 8.24603C5.91486 8.00747 5.5001 7.81558 4.9591 7.67037V10.8288Z" fill="#49AA26"/>
</svg>
